<svg id="visual" viewBox="0 0 900 900" width="900" height="900" xmlns="http://www.w3.org/2000/svg" xmlns:xlink="http://www.w3.org/1999/xlink" version="1.1"><path d="M0 64L100 73L200 82L300 37L400 91L500 91L600 73L700 109L800 37L900 73L900 0L800 0L700 0L600 0L500 0L400 0L300 0L200 0L100 0L0 0Z" fill="#b0c1bc"></path><path d="M0 136L100 109L200 145L300 82L400 118L500 154L600 118L700 136L800 109L900 145L900 71L800 35L700 107L600 71L500 89L400 89L300 35L200 80L100 71L0 62Z" fill="#a9b8b3"></path><path d="M0 172L100 172L200 172L300 118L400 190L500 208L600 145L700 181L800 172L900 172L900 143L800 107L700 134L600 116L500 152L400 116L300 80L200 143L100 107L0 134Z" fill="#a2b0aa"></path><path d="M0 388L100 253L200 460L300 316L400 361L500 433L600 370L700 415L800 460L900 460L900 170L800 170L700 179L600 143L500 206L400 188L300 116L200 170L100 170L0 170Z" fill="#9ba7a1"></path><path d="M0 559L100 379L200 568L300 442L400 478L500 523L600 424L700 496L800 559L900 541L900 458L800 458L700 413L600 368L500 431L400 359L300 314L200 458L100 251L0 386Z" fill="#949f98"></path><path d="M0 613L100 469L200 640L300 523L400 505L500 577L600 514L700 523L800 640L900 577L900 539L800 557L700 494L600 422L500 521L400 476L300 440L200 566L100 377L0 557Z" fill="#8d978f"></path><path d="M0 712L100 721L200 793L300 739L400 739L500 802L600 685L700 766L800 811L900 775L900 575L800 638L700 521L600 512L500 575L400 503L300 521L200 638L100 467L0 611Z" fill="#868e87"></path><path d="M0 811L100 811L200 856L300 793L400 838L500 847L600 784L700 856L800 856L900 811L900 773L800 809L700 764L600 683L500 800L400 737L300 737L200 791L100 719L0 710Z" fill="#7f867f"></path><path d="M0 901L100 901L200 901L300 901L400 901L500 901L600 901L700 901L800 901L900 901L900 809L800 854L700 854L600 782L500 845L400 836L300 791L200 854L100 809L0 809Z" fill="#787e77"></path></svg>